<svg xmlns="http://www.w3.org/2000/svg" version="1.1" xmlns:xlink="http://www.w3.org/1999/xlink" xmlns:svgjs="http://svgjs.dev/svgjs" width="1000" height="1000" viewBox="0 0 1000 1000"><rect width="1000" height="1000" fill="#ffffff"></rect><g transform="matrix(0.7,0,0,0.7,149.57575757575756,325.23866516398436)"><svg viewBox="0 0 396 198" data-background-color="#ffffff" preserveAspectRatio="xMidYMid meet" height="499" width="1000" xmlns="http://www.w3.org/2000/svg" xmlns:xlink="http://www.w3.org/1999/xlink"><g id="tight-bounds" transform="matrix(1,0,0,1,0.2400000000000091,0.06310992708587548)"><svg viewBox="0 0 395.52 197.87378014582825" height="197.87378014582825" width="395.52"><g><svg viewBox="0 0 395.52 197.87378014582825" height="197.87378014582825" width="395.52"><g><svg viewBox="0 0 397.4975999999999 198.86314904655737" height="197.87378014582825" width="395.52"><g><rect width="397.4975999999999" height="6.090915603934426" x="0" y="109.28644459016394" fill="#096a2e" opacity="1" stroke-width="0" stroke="transparent" fill-opacity="1" class="rect-o-0" data-fill-palette-color="secondary" rx="1%" id="o-0" data-palette-color="#096a2e"></rect></g><g transform="matrix(1,0,0,1,0.9887999999999693,131.32216544)"><svg viewBox="0 0 395.52 67.54098360655738" height="67.54098360655738" width="395.52"><g id="textblocktransform"><svg viewBox="0 0 395.52 67.54098360655738" height="67.54098360655738" width="395.52" id="textblock"><g><svg viewBox="0 0 395.52 67.54098360655738" height="67.54098360655738" width="395.52"><g transform="matrix(1,0,0,1,0,0)"><svg width="395.52" viewBox="-12.5 -31.25 182.99000549316406 31.25" height="67.54098360655738" data-palette-color="#096a2e"><path d="M9.05-21.65L8.7-19.4-12.5-21.65 9.05-21.65ZM9.55-26.45L9.3-24.2-11.9-26.45 9.55-26.45ZM10.05-31.25L9.8-29-11.3-31.25 10.05-31.25ZM-12.35-2.4L9.25-2.4 8.05-0.2-12.35-2.4ZM16.1-14.65L-4.3-16.85 17.3-16.85 16.1-14.65ZM10.75-5.05L-9.65-7.25 11.95-7.25 10.75-5.05ZM14.6-12.05L13.4-9.9-6.95-12.05 14.6-12.05ZM35.05-31.25L33.95-25 20.4 0 9.65 0 22.1-22.4 10.65-22.4 11.55-31.25 35.05-31.25ZM30.1-16.85L45.65-16.85 45.65-14.6 30.1-16.85ZM30.95-21.65L45.65-21.65 45.65-19.4 30.95-21.65ZM31.8-26.45L45.65-26.45 45.65-24.2 31.8-26.45ZM57.2-30.2L57.2-30.2 56.65-27Q56.6-26.8 51.9-13.75L51.9-13.75 47.15-13.75 47.15-25.3Q47.15-27.1 47.65-29.9L47.65-29.9Q47.85-31.25 49.65-31.25L49.65-31.25 55.65-31.25Q57.2-31.25 57.2-30.2ZM68.5-2.4L68.1-0.15 46.95-2.4 68.5-2.4ZM69.3-7.25L68.95-5 47.8-7.25 69.3-7.25ZM68.85-12.05L69.3-9.8 48.1-12.05 68.85-12.05ZM67.9-16.85L68.35-14.6 47.15-16.85 67.9-16.85ZM45.3-26.45L66-26.45 66.45-24.2 45.3-26.45ZM46.25-21.65L66.95-21.65 67.4-19.4 46.25-21.65ZM65.1-31.25L65.55-29 44.4-31.25 65.1-31.25ZM66.6-31.25L77.1-31.25 77.75-20.25 78.1-20.25 82.7-31.25 93.2-31.25 80.6-8.5 79.15 0 69.65 0 71.1-8.5 66.6-31.25ZM121.69-19.05L120.39-11.8 110.89-11.8 110.24-8 121.89-8 120.49 0 99.34 0 104.84-31.25 125.74-31.25 123.14-23.25 112.89-23.25 112.19-19.05 121.69-19.05ZM98.24-2.4L97.84-0.15 76.64-2.4 98.24-2.4ZM99.94-12.05L99.54-9.8 78.34-12.05 99.94-12.05ZM100.79-16.85L100.39-14.6 79.19-16.85 100.79-16.85ZM101.64-21.65L101.24-19.4 80.04-21.65 101.64-21.65ZM102.44-26.45L102.09-24.2 80.89-26.45 102.44-26.45ZM99.09-7.25L98.69-5 77.49-7.25 99.09-7.25ZM103.29-31.25L102.89-29 81.74-31.25 103.29-31.25ZM144.49-21.65L144.14-19.4 122.94-21.65 144.49-21.65ZM144.99-26.45L144.74-24.2 123.54-26.45 144.99-26.45ZM145.49-31.25L145.24-29 124.14-31.25 145.49-31.25ZM123.09-2.4L144.69-2.4 143.49-0.2 123.09-2.4ZM151.54-14.65L131.14-16.85 152.74-16.85 151.54-14.65ZM146.19-5.05L125.79-7.25 147.39-7.25 146.19-5.05ZM150.04-12.05L148.84-9.9 128.49-12.05 150.04-12.05ZM170.49-31.25L169.39-25 155.84 0 145.09 0 157.54-22.4 146.09-22.4 146.99-31.25 170.49-31.25Z" opacity="1" transform="matrix(1,0,0,1,0,0)" fill="#096a2e" class="undefined-text-0" data-fill-palette-color="primary" id="text-0"></path></svg></g></svg></g></svg></g></svg></g><g transform="matrix(1,0,0,1,114.36624374571092,0)"><svg viewBox="0 0 168.76511250857808 93.3416393442623" height="93.3416393442623" width="168.76511250857808"><g><svg xmlns="http://www.w3.org/2000/svg" xmlns:xlink="http://www.w3.org/1999/xlink" version="1.1" x="8" y="0" viewBox="10.293950080871582 25.738950729370117 79.40904998779297 48.520050048828125" enable-background="new 0 0 100 100" xml:space="preserve" height="93.3416393442623" width="152.76511250857808" class="icon-icon-0" data-fill-palette-color="accent" id="icon-0"><g fill="#096a2e" data-fill-palette-color="accent"><circle fill="#096a2e" cx="83.186" cy="67.742" r="6.5" data-fill-palette-color="accent"></circle><path fill="#096a2e" d="M26.301 38.469c0 0-2.021 0.18-3.136 1.033-1.019 0.78-8.275 6.585-9.211 7.794-0.936 1.211-0.717 0.935-1.266 2.806-0.55 1.87-2.362 11.562-2.362 11.562s-0.443 2.148 1.965 2.664c1.738 0.373 2.743-1.389 2.859-2.127 0.142-0.896 2.446-11.053 2.446-11.053l6.559-5.611c0 0 1.238 1.502-0.907 3.575 0 0 1.703 4.245 3.63 6.995 1.926 2.75 5.412 9.543 12.251 8.57 3.84-0.547 10.437-2.99 10.437-2.99s0.552 0.34-0.702 1.052c-0.206 0.115-3.637 2.355-3.876 2.495-3.089 1.795-9.034 5.272-9.034 5.272s1.154 5.006 5.831 3.025c6.766-3.19 10.944-7.091 11.84-7.89 0.892-0.797 2.998-3.254 1.101-6.613-1.609-2.847-5.778-2.982-8.681-2.174-1.39 0.387-6 1.765-7.683 2.325-0.244 0.082-0.193-1.104 1.814-1.813 0.701-0.249-1.402-6.106-1.938-7.88-0.537-1.773-1.375-5.02-3.687-7.909-1.815-2.271-6.077-3.089-6.683-3.108C27.263 38.45 26.301 38.469 26.301 38.469z" data-fill-palette-color="accent"></path><path fill="#096a2e" d="M35.312 39.5c0.949-0.212 1.802-1.526 1.802-1.526s2.434-3.976 1.91-7.055c-0.379-2.24-0.859-3.837-3.531-4.896-5.552-1.409-6.021 2.882-6.021 2.882l-0.269 7.217 0.17 0.395C30.596 36.723 33.656 37.756 35.312 39.5z" data-fill-palette-color="accent"></path><path fill="#096a2e" d="M58.248 63.017c-0.095 1.827-1.253 3.13-1.858 3.67-0.314 0.279-1.042 0.949-2.138 1.831 3.21 1.242 11.221 3.931 15.028 5.155 4.809 1.547 5.821-3.909 5.821-3.909L58.248 63.017z" data-fill-palette-color="accent"></path><path fill="#096a2e" d="M39.833 48.334l5.718 1.575 9.581-3.091c0 0 2.162-0.951 1.281-3.211-0.825-2.113-3.194-1.386-3.194-1.386l-8.846 2.431-6.307-2.121C38.731 43.902 39.33 46.058 39.833 48.334z" data-fill-palette-color="accent"></path></g></svg></g></svg></g><g><rect width="37.83312374571095" height="6.090915603934426" y="86.25072374032789" x="283.131356254289" fill="#096a2e" data-fill-palette-color="secondary"></rect><rect width="37.83312374571095" height="6.090915603934426" y="86.25072374032789" x="76.53311999999997" fill="#096a2e" data-fill-palette-color="secondary"></rect></g></svg></g></svg></g><defs></defs></svg><rect width="395.52" height="197.87378014582825" fill="none" stroke="none" visibility="hidden"></rect></g></svg></g></svg>